<svg height="511pt" viewBox="-76 1 511 511.99933" width="511pt" xmlns="http://www.w3.org/2000/svg"><path d="m300.496094 316c0 8.285156-6.714844 15-15 15-8.28125 0-15-6.714844-15-15s6.71875-15 15-15c8.285156 0 15 6.714844 15 15zm0 0"/><path d="m270.496094 376c0 8.285156-6.714844 15-15 15-8.28125 0-15-6.714844-15-15s6.71875-15 15-15c8.285156 0 15 6.714844 15 15zm0 0"/><path d="m351.382812 1.207031c-7.621093-3.25-16.433593.292969-19.683593 7.910157l-34.5 80.886718h-87.777344c-7.300781-50.820312-51.132813-89.99999975-103.921875-89.99999975-57.835938 0-105 47.06249975-105 104.99999975 0 52.785156 39.179688 96.621094 90 103.921875v288.074219c0 8.285156 6.714844 15 15 15h239.996094c8.285156 0 15-6.714844 15-15v-391.996094c0-8.285156-6.714844-15-15-15h-15.683594l29.480469-69.117187c3.25-7.617188-.292969-16.429688-7.910157-19.679688zm-308.425781 62.46875 26.328125 26.328125h-37.277344c1.949219-9.5625 5.730469-18.460937 10.949219-26.328125zm-10.949219 56.328125h37.277344l-26.328125 26.328125c-5.21875-7.871093-9-16.769531-10.949219-26.328125zm58.492188 58.488282c-9.5625-1.949219-18.460938-5.730469-26.328125-10.945313l26.328125-26.332031zm0-109.703126-26.328125-26.328124c7.867187-5.21875 16.765625-9 26.328125-10.949219zm88.488281 21.214844h-37.277343l26.328124-26.328125c5.21875 7.867188 9 16.765625 10.949219 26.328125zm-58.488281-58.492187c9.558594 1.949219 18.457031 5.730469 26.328125 10.949219l-26.328125 26.328124zm0 177.421875c26.023438-3.71875 49.730469-17.046875 66.589844-37.839844 5.21875-6.433594 4.230468-15.878906-2.203125-21.097656-6.433594-5.21875-15.878907-4.230469-21.097657 2.203125-11.113281 13.707031-26.390624 22.875-43.289062 26.296875v-58.492188h163.902344l-51.609375 120.996094h-112.292969zm0 62.066406h99.496094l-64.40625 151h-35.089844zm209.996094 211h-209.996094v-30h209.996094zm0-60h-142.292969l64.40625-151h77.886719zm0-301.996094v120.996094h-65.089844l51.609375-120.996094zm0 0"/></svg>