<svg height="512pt" viewBox="-40 0 512 512" width="512pt" xmlns="http://www.w3.org/2000/svg"><path d="m334.769531 167.636719h-2.527343v-4.308594c0-25.546875-11.382813-49.429687-31.234376-65.511719l-26.324218-21.335937v-28.511719c0-26.449219-21.519532-47.96875-47.96875-47.96875h-21.207032c-26.453124 0-47.96875 21.519531-47.96875 47.96875v27.695312l-27.339843 22.152344c-19.847657 16.082032-31.234375 39.960938-31.234375 65.511719v4.308594h-2.523438c-7.515625 0-13.632812 6.117187-13.632812 13.632812v20.199219c0 7.515625 6.117187 13.632812 13.632812 13.632812h2.523438v13c0 4.183594 3.390625 7.574219 7.574218 7.574219 4.183594 0 7.574219-3.390625 7.574219-7.574219v-13h202.984375v53.046876c0 11.691406-.816406 23.496093-2.425781 35.078124l-13.164063 94.769532c-.574218 4.144531 2.316407 7.96875 6.460938 8.542968.355469.050782.703125.074219 1.050781.074219 3.71875 0 6.964844-2.742187 7.492188-6.53125l13.164062-94.769531c1.703125-12.273438 2.566407-24.777344 2.566407-37.164062v-53.046876h2.527343c7.515625 0 13.632813-6.117187 13.632813-13.632812v-20.199219c0-7.515625-6.117188-13.632812-13.632813-13.632812zm-162.082031-119.667969c0-18.097656 14.722656-32.820312 32.820312-32.820312h21.207032c18.097656 0 32.820312 14.722656 32.820312 32.820312v23.730469h-86.847656zm160.566406 151.984375h-235.296875v-17.167969h81.796875c4.183594 0 7.574219-3.390625 7.574219-7.574218 0-4.183594-3.390625-7.574219-7.574219-7.574219h-65.640625v-4.308594c0-20.960937 9.339844-40.546875 25.625-53.742187l28.058594-22.738282h95.617187l28.058594 22.738282c16.285156 13.195312 25.625 32.78125 25.625 53.742187v4.308594h-101.957031c-4.179687 0-7.574219 3.390625-7.574219 7.574219 0 4.183593 3.394532 7.574218 7.574219 7.574218h118.113281zm0 0"/><path d="m305.082031 427.339844c-4.144531-.582032-7.96875 2.316406-8.546875 6.457031l-4.824218 34.75c-2.242188 16.136719-16.21875 28.304687-32.507813 28.304687h-87.195313c-16.292968 0-30.269531-12.167968-32.507812-28.304687l-22.960938-165.320313c-1.609374-11.582031-2.425781-23.382812-2.425781-35.078124v-4.40625c0-4.183594-3.390625-7.574219-7.574219-7.574219-4.183593 0-7.574218 3.390625-7.574218 7.574219v4.40625c0 12.386718.863281 24.890624 2.570312 37.164062l22.960938 165.320312c3.273437 23.582032 23.699218 41.367188 47.511718 41.367188h87.195313c23.808594 0 44.234375-17.785156 47.511719-41.367188l4.824218-34.75c.578126-4.144531-2.316406-7.96875-6.457031-8.542968zm0 0"/><path d="m373.335938 128.03125c-4.078126.9375-6.621094 5-5.6875 9.078125 5.273437 22.945313 5.273437 47.199219 0 70.144531-.933594 4.078125 1.609374 8.140625 5.6875 9.078125.570312.132813 1.140624.195313 1.703124.195313 3.449219 0 6.570313-2.375 7.375-5.882813 5.78125-25.164062 5.78125-51.765625 0-76.929687-.9375-4.074219-5.003906-6.621094-9.078124-5.683594zm0 0"/><path d="m424.488281 119.933594c-1.058593-4.046875-5.195312-6.472656-9.242187-5.410156-4.046875 1.058593-6.46875 5.199218-5.410156 9.246093 4.132812 15.78125 6.226562 32.070313 6.226562 48.410157 0 16.335937-2.09375 32.625-6.226562 48.414062-1.058594 4.046875 1.363281 8.1875 5.410156 9.246094.640625.167968 1.285156.25 1.921875.25 3.359375 0 6.429687-2.253906 7.320312-5.660156 4.460938-17.042969 6.722657-34.621094 6.722657-52.25 0-17.636719-2.261719-35.214844-6.722657-52.246094zm0 0"/><path d="m57.875 128.03125c-4.074219-.933594-8.140625 1.609375-9.078125 5.6875-5.78125 25.164062-5.78125 51.765625 0 76.929688.804687 3.503906 3.925781 5.878906 7.375 5.878906.5625 0 1.132813-.0625 1.703125-.195313 4.078125-.933593 6.621094-5 5.6875-9.074219-5.273438-22.945312-5.273438-47.203124 0-70.148437.933594-4.078125-1.613281-8.140625-5.6875-9.078125zm0 0"/><path d="m15.964844 114.523438c-4.046875-1.0625-8.1875 1.363281-9.246094 5.410156-4.457031 17.03125-6.71875 34.609375-6.71875 52.25 0 17.625 2.261719 35.203125 6.71875 52.246094.890625 3.40625 3.960938 5.660156 7.324219 5.660156.632812 0 1.277343-.078125 1.921875-.25 4.046875-1.058594 6.46875-5.195313 5.410156-9.242188-4.132812-15.792968-6.226562-32.082031-6.226562-48.414062 0-16.34375 2.09375-32.632813 6.222656-48.414063 1.0625-4.046875-1.359375-8.1875-5.40625-9.246093zm0 0"/></svg>