<svg height="512pt" viewBox="-43 0 512 512" width="512pt" xmlns="http://www.w3.org/2000/svg"><path d="m425.722656 437.355469c-1.425781-1.957031-3.703125-3.113281-6.125-3.113281h-67.542968l22.398437-283.253907c.328125-4.171875-2.785156-7.816406-6.953125-8.148437-4.167969-.324219-7.820312 2.785156-8.148438 6.953125l-11.644531 147.273437c-.003906.019532-.007812.035156-.007812.054688-2.964844 37.503906-34.527344 66.933594-72.054688 67.414062l-17.414062-17.414062s-.003907-.003906-.003907-.003906-.003906 0-.003906-.003907l-77.972656-77.972656c-.003906-.003906-.003906-.003906-.003906-.003906l-77.976563-77.976563-35.332031-35.328125-5.984375-78.074219h304.09375l-2.871094 36.335938c-.332031 4.171875 2.78125 7.820312 6.953125 8.148438 4.15625.324218 7.816406-2.78125 8.144532-6.953126l3.503906-44.328124c0-.003907 0-.007813 0-.007813l4.964844-62.785156c.167968-2.105469-.554688-4.183594-1.988282-5.734375-1.429687-1.550782-3.449218-2.433594-5.5625-2.433594h-330.222656c-2.109375 0-4.121094.878906-5.554688 2.425781-1.433593 1.550781-2.15625 3.625-1.996093 5.726563l10.9375 142.558594c-.042969.042968-.089844.078124-.128907.117187-17.871093 17.871094-31.382812 38.839844-40.160156 62.328125-1.464844 3.917969.523438 8.285156 4.441406 9.75 3.917969 1.460938 8.28125-.527344 9.746094-4.445312 7.136719-19.089844 17.699219-36.363282 31.449219-51.441407l29.675781 29.675781c-19.292968 21.921876-29.050781 49.351563-29.269531 76.847657-.039063.3125-.066406.628906-.066406.953125 0 .324218.027343.640625.066406.953125.238281 29.863281 11.71875 59.648437 34.449219 82.382812 22.734375 22.730469 52.519531 34.210938 82.378906 34.449219.3125.039062.632812.066406.957031.066406s.640625-.027344.953125-.066406c27.496094-.21875 54.925782-9.976562 76.847656-29.269531l29.675782 29.671875c-62.613282 57.003906-159.945313 55.257812-220.433594-5.230469-35.964844-35.964844-52.417969-85.507813-45.136719-135.921875.597657-4.136719-2.273437-7.980469-6.414062-8.578125-4.136719-.601563-7.980469 2.273437-8.578125 6.414063-3.808594 26.363281-1.511719 53.660156 6.644531 78.949218 8.550781 26.515625 22.941406 50.015625 42.773437 69.847656 6.464844 6.464844 13.316407 12.3125 20.476563 17.554688l1.417969 18.523438h-65.546875c-2.421875 0-4.695313 1.15625-6.121094 3.113281-1.4296875 1.957031-1.832031 4.480469-1.085937 6.785156l20.195312 62.609375c1.011719 3.128906 3.921875 5.25 7.207031 5.25h301.507813c4.183594 0 7.574218-3.390625 7.574218-7.574219 0-4.183593-3.390624-7.574219-7.574218-7.574219h-295.992188l-15.308594-47.460937h391.222657l-15.3125 47.460937h-29.261719c-4.183594 0-7.574219 3.390626-7.574219 7.574219 0 4.183594 3.390625 7.574219 7.574219 7.574219h34.777344c3.285156 0 6.199218-2.121094 7.207031-5.25l20.195313-62.609375c.746093-2.304687.339843-4.828125-1.082032-6.785156zm-353.207031-155.285157h84.089844l-59.492188 59.496094c-14.832031-17.175781-23.03125-38.136718-24.597656-59.496094zm94.800781 10.710938v84.09375c-21.359375-1.566406-42.316406-9.765625-59.492187-24.597656zm202.679688-277.632812-3.75 47.464843h-306.457032l-3.644531-47.464843zm-213.390625 251.773437h-84.089844c1.566406-21.359375 9.765625-42.320313 24.597656-59.496094zm25.859375 109.949219v-84.089844l59.496094 59.496094c-17.175782 14.832031-38.132813 23.03125-59.496094 24.59375zm-94.777344 49.234375c5.222656 3.003906 10.566406 5.714843 16.011719 8.132812h-15.390625zm158.382812 8.136719c19.050782-8.464844 36.894532-20.480469 52.488282-36.078126 1.421875-1.421874 2.21875-3.347656 2.21875-5.355468 0-2.007813-.796875-3.933594-2.21875-5.355469l-9.011719-9.011719c16.785156-2.84375 32.441406-10.46875 45.136719-22.199218 3.3125-3.058594 6.347656-6.351563 9.121094-9.828126l-6.945313 87.828126zm0 0"/></svg>